<svg xmlns="http://www.w3.org/2000/svg" version="1.0" width="55" height="55" viewBox="0 0 512.000000 512.000000" preserveAspectRatio="xMidYMid meet">

<g transform="translate(0.000000,512.000000) scale(0.100000,-0.100000)" fill="#000000" stroke="none">
<path d="M3218 4620 c-180 -31 -431 -235 -600 -488 l-56 -82 -56 82 c-155 231 -358 406 -540 468 -157 53 -308 0 -357 -127 -62 -160 6 -427 176 -688 62 -97 122 -165 220 -253 l73 -65 -38 -28 c-21 -15 -54 -47 -75 -72 l-37 -44 -126 -6 c-263 -13 -478 -106 -658 -283 -90 -89 -146 -173 -279 -419 -125 -233 -189 -331 -282 -436 -166 -185 -293 -264 -449 -279 -93 -8 -118 -22 -129 -72 -10 -43 10 -80 58 -109 23 -14 192 -106 375 -204 253 -137 331 -184 326 -195 -13 -32 -16 -178 -5 -232 40 -188 199 -342 383 -367 140 -19 289 27 396 123 l52 48 344 -186 c419 -227 406 -221 450 -202 64 27 72 80 26 160 -80 140 -80 339 1 594 30 96 136 332 149 332 7 0 100 -190 129 -267 39 -101 73 -257 78 -360 7 -127 -8 -208 -53 -290 -50 -91 -44 -142 22 -169 44 -19 31 -25 450 202 l344 186 52 -48 c107 -96 256 -142 396 -123 184 25 343 179 383 367 11 54 8 200 -5 232 -5 11 73 58 326 195 183 98 352 190 375 204 48 29 68 66 58 109 -10 50 -36 64 -127 72 -137 13 -254 77 -392 216 -137 138 -191 219 -382 572 -55 102 -127 219 -161 262 -183 231 -472 370 -771 370 l-85 0 -55 60 c-30 34 -70 69 -89 79 l-35 17 59 44 c83 63 188 165 244 239 66 87 164 287 190 391 25 97 30 232 11 297 -37 125 -163 197 -304 173z m-1311 -195 c114 -34 281 -173 405 -340 117 -155 152 -253 153 -425 0 -63 -3 -127 -8 -142 l-7 -27 -57 20 c-217 74 -431 287 -549 546 -64 139 -91 292 -63 346 22 42 46 46 126 22z m1417 -1 c58 -57 19 -261 -87 -453 -93 -169 -248 -308 -473 -423 -45 -24 -86 -40 -89 -36 -4 4 -9 54 -12 111 -9 170 30 298 134 445 60 84 180 211 253 267 118 91 235 129 274 89z m-986 -1110 c42 -17 88 -58 107 -94 14 -29 30 -120 20 -120 -4 0 -24 14 -45 30 -45 36 -189 113 -242 130 -44 13 -46 20 -16 39 53 33 120 39 176 15z m611 -8 c41 -21 39 -32 -6 -46 -54 -17 -198 -94 -243 -130 -21 -16 -41 -30 -45 -30 -10 0 6 91 20 120 18 35 64 76 105 95 42 19 123 14 169 -9z m-1034 -176 c159 -19 287 -69 406 -158 223 -169 346 -458 312 -731 -16 -126 -47 -205 -170 -434 -136 -254 -174 -332 -209 -432 -15 -44 -28 -81 -29 -83 -1 -1 -319 169 -706 379 -387 209 -719 389 -737 398 l-33 17 32 39 c63 79 149 217 245 397 117 219 167 298 226 359 146 150 317 232 528 252 19 2 37 4 40 5 3 1 45 -3 95 -8z m1552 -16 c118 -27 244 -92 346 -177 78 -67 148 -169 276 -405 125 -230 163 -294 237 -389 l45 -57 -33 -17 c-18 -9 -350 -188 -737 -398 -387 -210 -705 -380 -706 -379 -1 2 -14 39 -29 83 -25 71 -115 260 -177 371 l-23 41 46 94 c86 178 114 311 105 502 -8 160 -26 230 -100 390 l-40 87 29 31 c16 17 54 50 84 74 195 150 436 203 677 149z m-2061 -1591 l773 -418 -7 -50 c-4 -27 -7 -98 -6 -157 l0 -107 -95 51 c-1288 696 -1689 915 -1691 923 -2 6 24 26 57 45 33 19 86 56 118 83 31 26 62 47 67 47 6 0 358 -188 784 -417z m3159 370 c32 -27 85 -64 118 -83 33 -19 59 -39 57 -45 -2 -8 -404 -227 -1691 -923 l-95 -51 0 107 c1 59 -2 130 -6 157 l-7 50 772 417 c425 229 777 417 783 418 7 0 38 -21 69 -47z m-3394 -774 c123 -67 228 -125 233 -130 25 -23 -114 -89 -188 -89 -63 0 -140 28 -185 67 -48 41 -89 121 -98 190 -5 45 -1 83 10 83 2 0 104 -54 228 -121z m3013 53 c-3 -192 -195 -321 -376 -252 -58 22 -105 56 -94 68 15 15 452 250 461 247 6 -1 10 -29 9 -63z"/>
<path d="M1760 3020 c-144 -17 -289 -89 -396 -195 -134 -134 -160 -242 -69 -281 49 -20 87 -3 125 55 42 66 135 153 198 185 137 69 299 72 442 7 59 -27 82 -26 119 5 24 20 31 34 31 63 0 51 -22 78 -87 107 -111 49 -242 68 -363 54z"/>
<path d="M3195 3020 c-75 -9 -128 -24 -198 -55 -65 -28 -87 -56 -87 -106 0 -29 7 -43 31 -63 37 -31 60 -32 119 -5 143 65 305 62 442 -7 63 -32 156 -119 198 -185 38 -58 76 -75 125 -55 82 35 73 114 -29 238 -138 170 -378 265 -601 238z"/>
</g>
</svg>