<?xml version="1.0" standalone="no"?>
<!DOCTYPE svg PUBLIC "-//W3C//DTD SVG 20010904//EN"
 "http://www.w3.org/TR/2001/REC-SVG-20010904/DTD/svg10.dtd">
<svg version="1.0" xmlns="http://www.w3.org/2000/svg"
 width="80" height="50" viewBox="150 0 630.000000 512.000000"
 preserveAspectRatio="xMidYMid meet">

<g transform="translate(0.000000,512.000000) scale(0.100000,-0.100000)"
fill="#000000" stroke="none">
<path d="M3979 4965 c-96 -80 -180 -154 -187 -164 -15 -22 -71 -300 -64 -318
3 -9 25 -13 63 -13 32 0 59 -3 59 -7 0 -5 -18 -26 -41 -48 -45 -44 -54 -69
-46 -126 7 -56 45 -100 132 -154 l74 -47 -49 -98 c-61 -121 -122 -301 -152
-449 l-23 -111 -65 0 c-117 -1 -286 -30 -438 -76 -457 -139 -854 -491 -1051
-934 -206 -462 -196 -1013 28 -1459 98 -193 196 -325 357 -481 318 -306 727
-470 1174 -470 482 0 908 181 1240 526 224 233 374 518 441 837 l22 104 126
12 c471 43 882 257 1182 617 258 309 390 675 392 1084 1 245 -23 393 -100 605
-227 630 -760 1036 -1453 1106 -228 23 -530 -12 -738 -85 -42 -15 -43 -15 -51
7 -58 149 -82 186 -133 213 -43 22 -109 14 -152 -19 l-33 -26 5 44 c8 73 3 75
-182 75 l-162 0 -175 -145z m366 57 c-6 -5 -32 -26 -60 -49 l-50 -40 -69 8
c-38 5 -70 10 -72 12 -2 1 18 19 43 40 45 36 47 37 131 37 47 0 82 -4 77 -8z
m26 -227 c-32 -167 -28 -167 -74 -17 l-25 82 61 50 c34 28 63 47 64 43 2 -5
-10 -75 -26 -158z m289 -30 c43 -117 63 -145 105 -145 11 0 66 15 121 34 632
215 1331 44 1730 -422 362 -424 475 -988 303 -1516 -76 -231 -192 -419 -374
-602 -134 -135 -217 -200 -351 -274 -729 -404 -1653 -167 -2084 535 -89 145
-155 322 -195 523 l-7 33 44 -7 c23 -4 63 -12 88 -19 l45 -11 23 -75 c164
-528 581 -889 1127 -976 130 -20 361 -13 492 16 530 117 946 539 1058 1076 23
109 31 345 16 454 -59 407 -271 744 -614 974 -293 196 -673 268 -1031 196
-414 -84 -768 -356 -960 -737 -46 -91 -101 -254 -116 -344 -11 -64 -14 -68
-39 -67 -33 0 -120 14 -125 20 -7 7 22 146 50 237 35 119 86 238 140 333 24
44 47 92 50 107 8 40 -23 73 -126 132 -49 28 -92 56 -95 61 -16 24 38 18 165
-21 123 -37 141 -40 163 -28 41 22 334 272 348 296 11 19 10 47 -4 162 -16
131 -15 170 3 170 4 0 27 -52 50 -115z m-526 97 c3 -5 -20 -27 -50 -51 l-54
-42 0 50 0 51 49 0 c28 0 52 -4 55 -8z m-184 -96 l0 -64 -57 -46 c-32 -25 -59
-44 -61 -42 -1 2 3 34 9 71 11 60 17 71 57 106 25 21 46 39 48 39 2 0 4 -29 4
-64z m289 -67 c18 -55 31 -102 29 -103 -6 -6 -188 99 -185 107 2 8 109 96 117
97 3 0 21 -45 39 -101z m193 -99 c-15 -16 -23 -19 -19 -9 3 9 9 38 12 65 11
70 19 76 26 19 6 -45 4 -53 -19 -75z m-324 -15 l97 -55 -169 0 c-93 0 -166 3
-162 8 22 22 122 101 129 101 4 1 51 -24 105 -54z m136 -146 c-21 -24 -64 -22
-124 4 -35 15 -35 15 54 16 l89 1 -19 -21z m1351 -24 c408 -58 750 -305 934
-673 129 -257 157 -586 75 -871 -94 -325 -324 -601 -629 -754 -150 -75 -371
-132 -482 -125 l-46 3 -24 110 c-86 384 -320 744 -643 986 -115 87 -345 208
-470 249 -41 13 -78 27 -82 30 -8 6 22 151 47 225 186 553 748 902 1320 820z
m-1637 -1155 c41 -5 119 -21 175 -35 553 -140 986 -572 1127 -1124 11 -44 20
-85 20 -91 0 -13 -21 -11 -128 12 l-52 11 -21 71 c-152 511 -564 878 -1092
973 -139 24 -375 22 -502 -5 -128 -27 -209 -54 -315 -103 -391 -183 -684 -556
-769 -979 -64 -318 -2 -690 160 -964 98 -166 264 -345 414 -446 404 -273 923
-315 1365 -109 343 161 605 458 725 823 18 56 36 122 40 147 11 71 10 71 104
57 l82 -11 -6 -31 c-35 -175 -94 -345 -168 -478 -273 -499 -792 -808 -1357
-808 -260 0 -464 48 -695 161 -368 181 -649 502 -783 894 -152 445 -85 956
176 1350 244 367 626 612 1061 680 102 16 336 18 439 5z m-203 -367 c55 -371
261 -746 543 -988 159 -137 381 -264 577 -331 l86 -29 -6 -40 c-22 -139 -92
-317 -177 -445 -186 -283 -454 -466 -788 -536 -118 -25 -354 -25 -470 -1 -297
64 -556 225 -735 457 -366 477 -322 1171 101 1594 107 108 193 169 329 236
157 78 339 126 486 129 l47 1 7 -47z m700 -176 c133 -95 236 -202 324 -337 52
-80 137 -257 127 -267 -6 -6 -134 68 -197 114 -140 103 -250 228 -337 379 -45
79 -92 185 -92 207 0 13 101 -42 175 -96z"/>
</g>
</svg>
