<?xml version="1.0" standalone="no"?>
<!DOCTYPE svg PUBLIC "-//W3C//DTD SVG 20010904//EN"
 "http://www.w3.org/TR/2001/REC-SVG-20010904/DTD/svg10.dtd">
<svg version="1.0" xmlns="http://www.w3.org/2000/svg"
 width="55" height="55" viewBox="0 0 512.000000 512.000000"
 preserveAspectRatio="xMidYMid meet">

<g transform="translate(0.000000,512.000000) scale(0.100000,-0.100000)"
fill="#000000" stroke="none">
<path d="M3425 5099 c-67 -23 -133 -72 -176 -132 -100 -138 -96 -332 12 -514
39 -65 147 -178 235 -245 98 -76 226 -148 259 -148 63 0 293 156 399 271 217
234 245 510 69 684 -120 118 -283 136 -423 47 l-45 -28 -50 31 c-91 57 -180
68 -280 34z m176 -195 c14 -7 43 -34 64 -59 20 -26 49 -51 63 -56 39 -15 89 7
118 51 77 116 213 109 275 -13 29 -55 23 -150 -13 -229 -35 -74 -157 -202
-265 -275 l-84 -57 -32 17 c-18 10 -62 40 -98 67 -242 181 -325 403 -199 529
50 49 106 58 171 25z"/>
<path d="M2520 4057 c-39 -21 -2192 -1676 -2222 -1708 -39 -41 -38 -90 1 -130
l29 -29 316 0 315 0 4 -922 c3 -834 5 -928 20 -972 50 -143 158 -243 304 -281
86 -23 2460 -23 2546 0 146 38 254 138 304 281 15 44 17 138 20 972 l4 922
315 0 316 0 29 29 c34 35 39 86 11 120 -9 12 -165 135 -345 274 l-328 252 -2
465 c-2 526 0 509 -78 530 -26 7 -147 10 -347 8 -320 -3 -338 -6 -359 -48 -4
-8 -10 -88 -13 -176 l-5 -161 -285 219 c-157 120 -326 250 -376 288 -98 75
-134 89 -174 67z m998 -944 l947 -728 -187 -3 -187 -2 -583 442 c-321 243
-656 497 -746 565 -212 161 -193 160 -384 15 -79 -60 -414 -314 -746 -565
l-603 -457 -187 2 -187 3 945 727 c520 400 951 727 958 727 8 1 440 -326 960
-726z m442 231 c0 -260 -3 -324 -12 -317 -7 6 -100 76 -205 158 l-193 148 0
168 0 169 205 0 205 0 0 -326z m-692 -584 l692 -524 0 -931 0 -930 -24 -50
c-26 -58 -68 -97 -123 -117 -56 -19 -2450 -19 -2506 0 -55 20 -97 59 -123 117
l-24 50 0 930 0 931 693 526 c380 290 699 526 708 525 8 -1 327 -238 707 -527z"/>
<path d="M2100 2270 c-347 -40 -572 -408 -479 -781 51 -202 174 -392 379 -585
162 -151 490 -367 560 -367 70 0 398 216 560 367 205 193 328 383 379 585 57
229 -4 466 -159 621 -211 210 -530 218 -737 17 l-43 -41 -42 41 c-113 108
-264 160 -418 143z m190 -220 c70 -35 108 -67 156 -133 55 -74 71 -86 109 -86
44 0 68 17 118 85 48 66 85 98 157 135 37 20 60 24 130 23 107 0 161 -24 243
-105 71 -72 105 -142 117 -246 35 -306 -200 -635 -659 -921 l-101 -62 -101 62
c-308 192 -530 419 -616 631 -57 139 -60 310 -9 423 28 60 127 167 173 185 15
7 44 18 63 26 52 20 164 12 220 -17z"/>
</g>
</svg>
