<?xml version="1.0" standalone="no"?>
<!DOCTYPE svg PUBLIC "-//W3C//DTD SVG 20010904//EN"
 "http://www.w3.org/TR/2001/REC-SVG-20010904/DTD/svg10.dtd">
<svg version="1.0" xmlns="http://www.w3.org/2000/svg"
 width="60" height="60" viewBox="0 0 512.000000 512.000000"
 preserveAspectRatio="xMidYMid meet">

<g transform="translate(0.000000,512.000000) scale(0.100000,-0.100000)"
fill="#000000" stroke="none">
<path d="M2837 4948 c-9 -7 -75 -87 -147 -178 -94 -118 -145 -193 -181 -265
l-50 -100 -92 -6 c-75 -4 -100 -2 -135 13 -111 46 -191 60 -389 65 l-192 5
-25 -25 c-26 -26 -26 -27 -26 -199 l0 -174 -51 -49 c-124 -120 -232 -300 -294
-489 -18 -56 -45 -121 -59 -146 -51 -90 -71 -166 -71 -280 0 -60 6 -121 13
-142 12 -33 3 -88 -113 -690 -69 -359 -128 -661 -131 -670 -3 -10 -14 -18 -24
-18 -43 0 -60 -31 -99 -185 l-37 -150 -109 -38 c-64 -21 -117 -46 -127 -58
-25 -30 -22 -72 6 -106 l24 -29 -95 -48 c-158 -81 -241 -184 -266 -333 -50
-288 226 -548 512 -482 133 30 232 115 307 262 l48 95 29 -24 c34 -28 76 -31
106 -6 12 10 37 63 58 127 l38 109 150 37 c154 39 185 56 185 99 0 21 5 23
115 44 44 8 395 76 780 150 385 74 737 137 783 140 103 8 202 28 305 62 l79
26 76 -35 c124 -57 204 -77 430 -103 194 -22 215 -23 242 -9 16 8 32 26 36 40
9 35 -33 395 -57 490 -11 44 -40 121 -63 170 l-43 91 85 22 c178 46 331 143
500 315 125 128 125 127 -10 264 -57 58 -132 127 -168 154 -83 63 -215 131
-308 159 l-73 22 -39 83 c-22 45 -40 91 -40 102 0 35 -39 136 -76 196 l-36 58
16 47 c42 123 29 276 -35 409 -120 251 -422 374 -682 280 l-64 -24 -6 111
c-11 233 -78 386 -277 636 -72 91 -138 171 -147 178 -9 6 -29 12 -43 12 -14 0
-34 -6 -43 -12z m133 -308 c154 -196 208 -326 217 -516 7 -147 -7 -227 -52
-294 -19 -29 -35 -56 -35 -61 0 -5 -31 -9 -70 -9 l-70 0 0 280 0 280 -80 0
-80 0 0 -302 0 -303 -55 -29 c-31 -16 -57 -27 -59 -25 -15 16 -68 138 -88 199
-20 65 -23 95 -23 225 0 143 2 154 32 242 18 51 51 122 73 159 39 65 190 263
200 263 3 0 43 -49 90 -109z m-948 -334 c129 -25 251 -79 349 -157 l36 -28 6
-108 c5 -93 22 -180 53 -268 4 -11 -73 59 -170 155 l-176 175 -57 -58 -58 -57
188 -188 188 -188 -71 10 c-67 9 -148 3 -242 -20 -23 -5 -34 1 -79 47 -151
155 -229 358 -229 595 l0 104 94 0 c52 0 127 -6 168 -14z m1742 -424 c90 -42
149 -100 193 -190 35 -69 38 -82 38 -163 0 -48 -3 -90 -6 -93 -3 -4 -26 5 -50
18 -24 13 -62 30 -84 36 -35 10 -45 20 -69 66 -36 69 -101 128 -184 167 -64
31 -72 32 -194 32 -71 0 -128 3 -128 6 0 15 92 90 139 114 72 36 115 45 203
41 61 -3 92 -11 142 -34z m-2109 -19 c3 -15 24 -61 45 -103 l38 -77 -87 -6
c-47 -3 -108 -13 -134 -23 -26 -9 -50 -14 -52 -12 -12 12 161 261 176 253 4
-3 10 -17 14 -32z m1859 -275 c80 -24 166 -135 166 -216 0 -19 -4 -21 -32 -15
-18 3 -49 19 -68 33 -109 85 -252 59 -340 -61 -31 -43 -40 -37 -40 28 0 66 22
116 75 168 70 71 145 90 239 63z m-578 -20 c-80 -110 -113 -184 -129 -296 -34
-230 93 -468 304 -571 l81 -39 -57 -12 c-73 -15 -125 -9 -202 24 -34 14 -82
30 -107 35 -58 11 -100 37 -93 59 3 10 18 49 33 87 24 61 28 85 28 180 1 83
-4 123 -18 165 -25 74 -59 141 -92 179 l-27 32 44 45 c52 53 91 79 168 110 74
31 89 31 67 2z m-1092 -86 c76 -35 137 -89 173 -150 21 -36 24 -46 12 -53 -22
-14 -33 -11 -93 25 -133 80 -277 70 -393 -28 -43 -36 -156 -274 -169 -354 -8
-53 -21 -45 -60 41 -25 54 -29 74 -29 157 0 86 3 101 32 162 40 85 97 147 172
186 78 42 122 52 213 48 60 -3 93 -11 142 -34z m1201 -125 c0 -82 4 -99 32
-159 38 -80 97 -147 158 -179 30 -16 48 -33 52 -49 8 -36 41 -99 71 -139 l25
-34 -64 6 c-85 9 -192 62 -248 123 -24 25 -57 75 -74 112 -29 61 -32 76 -32
163 0 90 2 99 38 172 21 42 39 77 40 77 1 0 2 -42 2 -93z m-641 45 c91 -42
149 -100 194 -190 35 -72 37 -81 37 -171 0 -84 -4 -104 -28 -155 -29 -62 -86
-140 -115 -155 -16 -8 -17 2 -17 118 0 121 -1 129 -32 193 -39 83 -98 148
-167 184 -46 24 -56 34 -66 69 -6 22 -23 60 -36 84 -13 24 -24 45 -24 47 0 9
44 13 112 9 61 -2 92 -10 142 -33z m1497 -110 c60 -39 106 -94 143 -172 28
-59 31 -74 31 -161 0 -90 -2 -99 -37 -171 -45 -91 -103 -147 -196 -191 -61
-29 -76 -32 -162 -32 -83 0 -103 4 -157 29 -85 39 -94 52 -42 60 82 13 318
126 355 169 98 117 108 260 28 394 -24 39 -33 64 -29 80 7 29 12 29 66 -5z
m-406 -37 c16 -15 25 -36 25 -55 0 -19 -9 -40 -25 -55 -15 -16 -36 -25 -55
-25 -19 0 -40 9 -55 25 -16 15 -25 36 -25 55 0 19 9 40 25 55 15 16 36 25 55
25 19 0 40 -9 55 -25z m-1672 -69 c18 -7 42 -25 55 -38 l23 -25 -48 -14 c-67
-18 -144 -96 -163 -163 l-13 -49 -33 36 c-116 126 22 320 179 253z m1901 -46
c53 -63 46 -154 -15 -212 -65 -62 -152 -63 -216 -4 l-36 33 49 13 c63 18 144
96 162 158 7 23 17 42 22 42 4 0 20 -14 34 -30z m-1570 -32 c55 -16 138 -99
154 -154 28 -94 8 -169 -63 -239 -52 -53 -102 -75 -168 -75 -65 0 -71 9 -28
40 121 88 146 231 61 340 -15 20 -31 50 -35 68 -6 28 -4 32 16 32 12 0 40 -5
63 -12z m-179 -173 c50 -49 15 -135 -55 -135 -41 0 -80 39 -80 80 0 41 39 80
80 80 19 0 40 -9 55 -25z m-350 -182 c22 -11 51 -23 65 -26 16 -4 33 -22 49
-52 32 -61 99 -120 179 -158 60 -28 77 -32 158 -32 102 0 102 -4 -3 -53 -50
-23 -71 -27 -154 -27 -90 0 -99 2 -171 37 -127 63 -210 180 -225 318 l-6 63
34 -25 c19 -14 52 -35 74 -45z m-315 -67 c0 -18 88 -165 139 -231 25 -33 106
-122 180 -198 l135 -138 -342 -342 -342 -342 -24 25 -25 25 99 510 c55 281
109 561 121 623 21 109 22 112 40 96 11 -9 19 -22 19 -28z m3001 18 c134 -33
263 -111 379 -229 l75 -76 -86 -82 c-215 -206 -501 -279 -780 -201 -50 14 -60
21 -65 43 -5 27 -33 127 -41 149 -4 9 52 12 261 12 l266 0 0 80 0 80 -172 0
-173 0 40 32 c63 51 115 109 147 165 33 58 27 57 149 27z m-1427 -182 c76 -35
137 -89 173 -150 21 -36 24 -46 12 -53 -22 -14 -33 -11 -93 25 -133 80 -277
70 -393 -28 -43 -36 -156 -274 -169 -354 -8 -53 -21 -45 -60 41 -25 54 -29 74
-29 157 0 86 3 101 32 162 40 85 97 147 172 186 78 42 122 52 213 48 60 -3 93
-11 142 -34z m560 -80 c91 -42 149 -100 194 -190 35 -72 37 -81 37 -171 0 -87
-3 -102 -32 -163 -27 -58 -104 -158 -122 -158 -3 0 -6 57 -6 128 0 122 -1 130
-32 194 -39 83 -98 148 -167 184 -46 24 -56 34 -66 69 -6 22 -23 60 -36 84
-13 24 -24 45 -24 47 0 9 44 13 112 9 61 -2 92 -10 142 -33z m-1278 -213 c-12
-88 1 -190 37 -279 l26 -64 -175 174 -174 175 79 7 c43 4 107 19 142 32 35 13
66 24 69 25 3 0 1 -31 -4 -70z m691 0 c29 -11 73 -47 73 -60 0 -5 -19 -14 -42
-21 -58 -17 -139 -98 -156 -155 -7 -24 -17 -43 -22 -43 -17 0 -59 61 -66 95
-23 126 95 229 213 184z m337 -81 c55 -16 138 -99 154 -154 28 -94 8 -169 -63
-239 -52 -53 -102 -75 -168 -75 -65 0 -71 9 -28 40 121 88 146 231 61 340 -15
20 -31 50 -35 68 -6 28 -4 32 16 32 12 0 40 -5 63 -12z m-1054 -401 c140 -140
282 -274 315 -299 72 -54 207 -134 252 -149 18 -6 33 -14 33 -17 0 -4 -282
-62 -627 -129 l-628 -122 -145 145 -145 144 340 340 c187 187 342 340 345 340
2 0 119 -114 260 -253z m875 228 c50 -49 15 -135 -55 -135 -41 0 -80 39 -80
80 0 41 39 80 80 80 19 0 40 -9 55 -25z m999 -44 c66 -8 83 -13 98 -33 37 -48
98 -177 117 -249 18 -64 56 -338 49 -344 -7 -5 -249 26 -316 41 -106 23 -254
100 -335 174 -37 34 -67 65 -67 69 0 4 13 14 29 24 16 9 53 41 83 71 l55 55
89 -90 c49 -49 93 -89 98 -89 6 0 34 24 63 52 l53 53 -112 112 -112 112 12 39
12 39 52 -14 c29 -7 89 -17 132 -22z m-1349 -138 c22 -11 51 -23 65 -26 16 -4
33 -22 49 -52 32 -61 99 -120 179 -158 60 -28 77 -32 158 -32 102 0 102 -4 -3
-53 -50 -23 -71 -27 -154 -27 -90 0 -99 2 -171 37 -127 63 -210 180 -225 318
l-6 63 34 -25 c19 -14 52 -35 74 -45z m795 -338 l43 -44 -24 -9 c-27 -11 -211
-44 -215 -39 -2 2 19 20 46 41 28 21 60 51 71 67 11 16 24 29 28 29 4 0 27
-20 51 -45z m-2103 -531 c-1 -1 -47 -14 -101 -27 -54 -14 -105 -32 -112 -39
-8 -7 -24 -44 -36 -81 l-23 -67 -188 188 -188 188 71 23 c45 14 75 30 84 44 7
12 24 64 36 116 l23 93 218 -218 c120 -120 217 -219 216 -220z m-714 -27 c-77
-130 -281 -436 -288 -434 -14 5 -33 74 -34 123 -2 113 58 191 209 269 112 58
126 63 113 42z m202 -177 l70 -71 -58 -114 c-65 -129 -108 -174 -190 -201 -50
-17 -139 -15 -171 3 -12 6 14 53 127 230 78 123 144 223 147 223 3 0 37 -32
75 -70z"/>
</g>
</svg>
