<?xml version="1.0" standalone="no"?>
<!DOCTYPE svg PUBLIC "-//W3C//DTD SVG 20010904//EN"
 "http://www.w3.org/TR/2001/REC-SVG-20010904/DTD/svg10.dtd">
<svg version="1.0" xmlns="http://www.w3.org/2000/svg"
 width="65" height="65" viewBox="0 0 840.000000 592.000000"
 preserveAspectRatio="xMidYMid meet">

<g transform="translate(0.000000,592.000000) scale(0.100000,-0.100000)"
fill="#000000" stroke="none">
<path d="M4565 5152 c-61 -29 -118 -97 -145 -174 l-23 -67 -176 1 c-370 2
-716 -91 -1018 -273 -519 -314 -855 -828 -939 -1438 -20 -149 -15 -422 11
-571 22 -123 75 -307 121 -418 120 -294 348 -595 596 -788 l27 -21 -29 -74
c-43 -110 -39 -186 16 -268 13 -19 41 -46 62 -61 21 -14 168 -76 327 -139 289
-113 289 -113 360 -109 115 8 186 67 235 197 l22 60 176 -1 c539 -2 1014 193
1393 571 305 306 482 653 556 1091 24 143 24 445 0 585 -63 362 -192 656 -407
924 -76 94 -227 247 -304 307 l-39 31 28 69 c47 118 36 219 -33 296 -45 50
-37 46 -362 174 -240 94 -284 108 -345 111 -53 3 -80 -1 -110 -15z m420 -245
c273 -109 280 -113 298 -149 18 -37 18 -37 -11 -120 -46 -128 -363 -932 -371
-941 -4 -4 -117 36 -252 88 -134 53 -292 115 -351 138 -60 23 -108 45 -108 48
0 4 88 231 195 506 210 537 214 543 283 542 23 0 145 -43 317 -112z m-656
-153 c7 -6 -161 -420 -176 -431 -9 -7 -39 -13 -66 -13 -115 0 -348 -65 -492
-137 -252 -127 -489 -368 -611 -619 -43 -91 -87 -217 -109 -314 -25 -114 -31
-363 -12 -486 40 -249 143 -474 309 -671 l77 -92 -85 -218 c-47 -120 -87 -219
-89 -221 -8 -8 -233 219 -291 293 -237 304 -368 663 -381 1050 -18 516 176
1000 544 1356 112 108 188 168 300 238 262 162 539 251 838 270 97 6 234 4
244 -5z m1190 -561 c455 -486 604 -1182 390 -1818 -134 -394 -421 -749 -779
-962 -112 -67 -133 -77 -263 -129 -231 -93 -442 -129 -728 -125 l-67 1 85 217
c46 120 86 219 88 222 2 2 39 7 82 11 460 47 853 307 1071 710 101 186 161
425 162 639 0 90 -25 284 -41 313 -15 28 -57 41 -90 28 -42 -18 -52 -54 -37
-136 20 -111 16 -341 -9 -454 -54 -243 -172 -450 -353 -624 -184 -175 -418
-288 -669 -321 -61 -8 -60 -14 -17 92 22 53 26 57 69 68 65 17 122 57 153 111
26 44 80 180 395 986 123 314 139 363 139 415 0 56 -24 128 -54 163 -11 12 -8
28 19 93 l32 79 49 -64 c28 -34 65 -88 84 -118 51 -83 69 -100 107 -100 41 0
73 30 73 68 0 38 -91 182 -182 289 l-70 83 82 213 c46 116 85 215 87 220 6 11
104 -75 192 -170z m-1440 -85 c-12 -29 -26 -65 -31 -80 -7 -19 -17 -28 -31
-28 -32 -1 -108 -37 -140 -68 -16 -15 -37 -43 -47 -62 -39 -78 -330 -834 -330
-859 0 -48 57 -81 103 -60 31 14 20 -10 202 454 163 416 179 445 238 445 45
-1 853 -320 883 -349 17 -16 24 -34 24 -59 0 -22 -53 -171 -141 -396 -78 -199
-191 -487 -251 -641 -116 -298 -137 -335 -195 -335 -23 0 -809 301 -866 332
-10 5 -25 25 -33 44 -17 40 -13 57 35 177 17 43 31 91 31 107 0 60 -77 93
-119 51 -24 -24 -99 -217 -107 -273 -7 -53 8 -113 41 -163 28 -41 27 -51 -17
-153 l-18 -44 -37 44 c-103 122 -196 307 -239 476 -31 121 -43 337 -25 462 46
315 221 607 476 798 76 57 225 136 320 171 65 24 223 59 267 60 l28 1 -21 -52z
m-214 -2015 c193 -75 351 -138 353 -139 3 -2 -375 -968 -393 -1004 -19 -36
-57 -54 -102 -47 -21 3 -155 51 -298 108 -293 116 -321 134 -312 197 5 37 388
1022 397 1022 3 0 163 -62 355 -137z"/>
<path d="M4022 3327 c-87 -27 -168 -141 -179 -251 -12 -117 80 -333 189 -445
31 -31 36 -33 84 -28 160 17 309 80 400 171 70 70 94 126 94 218 0 69 -16 111
-60 162 -50 57 -100 78 -176 75 -62 -2 -65 -1 -101 36 -66 68 -160 91 -251 62z
m130 -156 c13 -11 30 -38 37 -60 12 -41 42 -71 71 -71 9 0 33 9 55 20 53 27
90 25 120 -5 33 -32 34 -98 2 -146 -43 -64 -168 -131 -274 -144 l-48 -7 -47
79 c-62 102 -86 194 -68 258 23 82 97 119 152 76z"/>
<path d="M1685 4678 c-45 -24 -45 -28 -45 -343 0 -338 4 -366 67 -428 46 -47
91 -67 147 -67 l46 0 0 -590 0 -589 -27 -15 c-35 -18 -66 -51 -87 -93 -14 -28
-16 -98 -16 -618 0 -556 1 -588 19 -623 77 -150 285 -150 362 0 18 35 19 67
19 623 0 565 -1 587 -20 625 -11 21 -38 53 -60 71 l-40 32 0 589 0 588 45 0
c60 0 104 19 148 65 63 65 67 91 67 427 0 192 -4 306 -11 319 -25 48 -105 44
-128 -7 -7 -17 -11 -120 -11 -313 0 -369 15 -341 -184 -341 -133 0 -144 2
-162 21 -18 19 -19 45 -24 333 -4 171 -7 312 -8 313 -5 6 -62 33 -69 33 -4 0
-17 -6 -28 -12z m323 -2170 c17 -17 17 -1129 0 -1146 -15 -15 -61 -15 -76 0
-17 17 -17 1129 0 1146 7 7 24 12 38 12 14 0 31 -5 38 -12z"/>
<path d="M1945 4678 c-43 -23 -45 -33 -45 -255 0 -214 0 -214 25 -238 13 -14
36 -25 50 -25 14 0 37 11 50 25 25 24 25 24 25 234 0 115 -3 217 -6 226 -6 15
-54 45 -71 45 -4 0 -17 -6 -28 -12z"/>
<path d="M6317 4680 c-62 -16 -112 -47 -155 -95 -65 -74 -72 -108 -72 -344 0
-219 5 -253 45 -310 39 -56 88 -84 156 -89 l59 -4 0 -614 0 -613 -27 -15 c-35
-18 -66 -51 -88 -96 -16 -31 -18 -80 -17 -591 1 -533 2 -559 20 -596 78 -151
286 -151 363 -1 18 35 19 66 19 598 0 537 -1 562 -20 599 -19 38 -72 91 -91
91 -5 0 -9 248 -9 620 l0 620 45 0 c60 0 104 19 148 65 59 61 67 101 67 330 0
240 -8 279 -75 353 -61 68 -124 94 -240 98 -49 2 -107 -1 -128 -6z m230 -166
c57 -41 63 -70 63 -280 0 -257 10 -244 -185 -244 -195 0 -185 -13 -185 247 0
203 4 226 48 266 30 28 70 36 154 34 59 -2 83 -7 105 -23z m-89 -2056 c17 -17
17 -1079 0 -1096 -15 -15 -61 -15 -76 0 -17 17 -17 1079 0 1096 7 7 24 12 38
12 14 0 31 -5 38 -12z"/>
</g>
</svg>
