<?xml version="1.0" standalone="no"?>
<!DOCTYPE svg PUBLIC "-//W3C//DTD SVG 20010904//EN"
 "http://www.w3.org/TR/2001/REC-SVG-20010904/DTD/svg10.dtd">
<svg version="1.0" xmlns="http://www.w3.org/2000/svg"
 width="55" height="55" viewBox="0 0 500.000000 500.000000"
 preserveAspectRatio="xMidYMid meet">

<g transform="translate(0.000000,500.000000) scale(0.100000,-0.100000)"
fill="#000000" stroke="none">
<path d="M2234 4912 c-52 -25 -109 -92 -130 -154 -22 -68 -16 -178 14 -238 31
-62 377 -417 415 -426 26 -6 43 8 223 187 208 207 237 248 250 345 14 109 -52
236 -147 284 -71 37 -185 22 -271 -35 l-36 -24 -72 37 c-89 45 -180 54 -246
24z m169 -149 c18 -9 52 -31 76 -50 57 -43 90 -43 140 2 46 42 98 65 145 65
41 0 82 -42 92 -95 12 -66 -10 -101 -161 -252 -79 -79 -147 -143 -152 -143 -9
0 -215 208 -271 273 -27 32 -32 46 -32 88 0 112 70 160 163 112z"/>
<path d="M3460 3929 c-128 -37 -214 -60 -530 -145 -355 -94 -350 -93 -361
-118 -14 -29 13 -380 41 -542 76 -444 302 -1031 528 -1374 174 -263 341 -417
490 -452 l51 -12 30 -111 c38 -138 226 -835 241 -894 6 -23 9 -45 7 -47 -2 -3
-53 -18 -113 -34 -75 -20 -114 -36 -126 -51 -41 -49 -7 -109 61 -109 22 0 140
27 263 61 355 96 358 97 368 123 18 49 -15 106 -62 106 -16 0 -76 -12 -134
-26 -57 -15 -106 -25 -108 -23 -2 2 -65 235 -140 517 l-137 513 55 49 c93 85
157 237 198 470 22 126 16 550 -10 746 -58 436 -147 765 -288 1076 -31 68 -69
155 -86 193 -34 79 -67 115 -106 114 -15 0 -74 -14 -132 -30z m163 -279 c106
-243 221 -569 206 -584 -7 -7 -1034 -73 -1041 -67 -17 15 -90 554 -77 564 12
10 817 226 833 224 15 -2 34 -35 79 -137z m241 -742 c48 -223 75 -441 82 -673
12 -363 -42 -633 -151 -754 -34 -37 -42 -41 -84 -41 -204 0 -521 419 -744 985
-57 144 -163 463 -156 469 2 2 193 18 424 35 426 32 609 47 611 50 1 0 9 -32
18 -71z"/>
<path d="M1405 3930 c-29 -32 -173 -361 -234 -533 -134 -381 -211 -835 -211
-1254 0 -406 64 -649 208 -791 l54 -53 -50 -192 c-115 -434 -224 -842 -226
-844 -1 -1 -49 13 -106 32 -120 40 -148 43 -178 15 -44 -41 -21 -103 47 -124
122 -39 542 -146 573 -146 39 0 78 33 78 67 0 44 -31 63 -150 95 -63 16 -116
31 -117 32 -1 1 34 134 77 296 44 162 108 399 142 527 l62 231 39 6 c54 9 143
56 218 116 233 184 486 613 659 1115 126 366 169 565 195 901 16 202 16 208
-3 233 -16 22 -53 35 -268 94 -579 157 -734 197 -762 197 -16 0 -37 -9 -47
-20z m257 -186 c298 -79 629 -166 656 -172 19 -4 22 -11 22 -51 0 -80 -19
-262 -42 -395 l-21 -128 -71 6 c-39 4 -273 20 -520 36 -247 17 -451 32 -454
35 -6 6 54 214 99 340 58 161 158 365 180 365 10 0 77 -16 151 -36z m-217
-789 c110 -9 250 -20 310 -25 133 -12 466 -40 477 -40 17 0 -110 -376 -192
-569 -149 -350 -300 -592 -468 -753 -131 -125 -233 -160 -300 -104 -67 57
-130 234 -153 428 -15 129 -6 534 15 683 8 61 27 176 42 257 26 138 29 147 48
143 12 -2 111 -11 221 -20z"/>
</g>
</svg>
