<?xml version="1.0" standalone="no"?>
<!DOCTYPE svg PUBLIC "-//W3C//DTD SVG 20010904//EN"
 "http://www.w3.org/TR/2001/REC-SVG-20010904/DTD/svg10.dtd">
<svg version="1.0" xmlns="http://www.w3.org/2000/svg"
 width="55" height="55" viewBox="0 0 512.000000 512.000000"
 preserveAspectRatio="xMidYMid meet">

<g transform="translate(0.000000,512.000000) scale(0.100000,-0.100000)"
fill="#000000" stroke="none">
<path d="M2325 4954 c-260 -31 -548 -132 -765 -267 -483 -301 -813 -795 -894
-1340 -9 -56 -18 -128 -22 -159 l-5 -58 -110 0 c-103 0 -111 -1 -134 -25 l-25
-24 0 -319 0 -318 -25 -34 c-25 -33 -48 -90 -59 -142 -5 -22 -12 -28 -34 -28
-74 0 -186 -85 -226 -170 -32 -70 -29 -178 7 -252 40 -82 142 -158 211 -158
28 0 46 -18 46 -47 0 -28 17 -67 52 -120 l28 -42 0 -570 0 -571 -100 0 c-94 0
-103 -2 -125 -25 -33 -32 -33 -78 0 -110 l24 -25 730 0 c521 0 737 3 755 11
50 23 57 103 13 134 -15 11 -49 15 -119 15 l-98 0 0 299 c0 512 -50 738 -217
988 -35 53 -62 97 -61 98 2 1 57 39 123 83 550 370 904 837 1116 1472 53 161
99 333 125 476 10 52 21 94 24 94 3 0 14 -42 24 -94 27 -149 72 -318 131 -491
209 -624 567 -1094 1110 -1457 66 -44 121 -81 123 -83 1 -1 -26 -45 -61 -98
-168 -250 -217 -475 -217 -988 l0 -299 -98 0 c-70 0 -104 -4 -119 -15 -44 -31
-37 -111 13 -134 18 -8 234 -11 755 -11 l730 0 24 25 c33 32 33 78 0 110 -22
23 -31 25 -125 25 l-100 0 0 571 0 570 28 42 c35 53 52 92 52 120 0 29 18 47
46 47 69 0 171 76 211 158 36 74 39 182 7 252 -40 85 -152 170 -226 170 -22 0
-29 6 -34 28 -11 52 -34 109 -59 142 l-25 34 0 318 0 319 -25 24 c-23 24 -31
25 -134 25 l-110 0 -5 58 c-12 110 -37 262 -57 339 -87 334 -258 631 -504 878
-422 421 -1001 621 -1590 549z m151 -311 c-49 -1203 -360 -1989 -1001 -2533
-88 -74 -301 -230 -316 -230 -21 0 -5 19 55 68 97 79 267 252 358 365 187 233
308 461 371 703 40 150 35 192 -23 213 -33 11 -68 3 -87 -20 -6 -8 -22 -61
-36 -119 -56 -233 -165 -445 -347 -675 -70 -89 -302 -325 -320 -325 -27 0 -19
33 23 88 82 106 187 275 256 412 193 381 297 775 332 1267 11 148 10 164 -5
188 -34 52 -109 53 -134 2 -6 -12 -14 -74 -17 -137 -35 -621 -221 -1181 -534
-1600 -31 -41 -58 -78 -61 -81 -3 -4 -26 -2 -51 5 l-47 11 45 105 c139 325
222 661 254 1030 12 137 6 555 -10 689 l-7 65 47 56 c68 83 221 222 324 296
109 78 336 193 461 233 137 44 322 80 458 90 18 1 19 -6 12 -166z m344 146
c252 -34 539 -150 755 -304 102 -73 255 -212 324 -295 l47 -56 -7 -65 c-16
-134 -22 -552 -10 -689 32 -369 116 -709 254 -1030 l45 -105 -47 -11 c-25 -7
-48 -9 -51 -5 -3 3 -30 40 -61 81 -306 410 -489 944 -529 1548 -6 92 -16 177
-22 189 -25 51 -100 50 -134 -2 -14 -21 -15 -41 -10 -133 23 -373 85 -692 193
-992 86 -240 254 -553 400 -742 42 -55 50 -88 23 -88 -18 0 -250 236 -320 325
-184 232 -296 452 -350 687 -22 97 -38 124 -75 128 -62 7 -95 -20 -95 -77 0
-96 80 -331 167 -493 133 -249 367 -531 587 -710 62 -50 78 -70 57 -70 -13 0
-226 154 -311 225 -102 85 -292 282 -367 380 -401 528 -599 1195 -639 2158
l-7 168 54 -6 c30 -4 88 -11 129 -16z m-1783 -1188 c-6 -312 -23 -459 -83
-699 -35 -141 -94 -325 -133 -412 l-20 -45 0 350 c-1 351 6 461 35 610 37 186
175 528 197 489 6 -10 7 -130 4 -293z m3206 -41 c65 -217 70 -261 73 -710 l4
-405 -21 45 c-70 154 -155 465 -190 695 -22 149 -39 645 -24 702 7 26 12 19
66 -92 32 -66 73 -172 92 -235z m-3603 -813 l0 -224 -55 1 -55 1 0 223 0 222
55 0 55 0 0 -223z m3950 1 l0 -223 -55 -1 -55 -1 0 224 0 223 55 0 55 0 0
-222z m-3953 -397 c47 -22 73 -62 73 -114 l0 -35 -37 14 c-51 18 -145 17 -189
-1 -43 -18 -51 -6 -35 52 12 45 45 80 87 93 43 12 55 11 101 -9z m3945 9 c43
-12 82 -58 93 -107 9 -46 1 -54 -40 -37 -43 17 -138 18 -187 0 l-38 -14 0 35
c0 70 50 124 125 132 6 0 27 -4 47 -9z m-4268 -307 c-12 -37 -11 -180 0 -217
l9 -29 -39 7 c-50 10 -80 29 -104 69 -51 83 12 197 109 197 32 0 33 -1 25 -27z
m622 8 c32 -20 64 -74 64 -110 0 -62 -52 -121 -117 -135 -46 -10 -54 -2 -37
39 18 44 18 146 0 190 l-15 35 37 0 c20 0 51 -9 68 -19z m3338 -16 c-18 -44
-18 -146 1 -191 18 -43 6 -51 -52 -35 -44 12 -76 42 -92 84 -15 39 -14 63 6
104 20 44 66 73 115 73 l37 0 -15 -35z m624 15 c59 -36 78 -118 42 -177 -24
-40 -54 -59 -104 -69 l-39 -7 9 29 c11 37 12 180 0 217 -8 26 -7 27 25 27 19
0 49 -9 67 -20z m-4258 -5 c55 -28 76 -105 45 -165 -22 -43 -53 -60 -108 -60
-42 0 -54 5 -83 34 -29 29 -34 41 -34 81 0 57 12 80 53 105 38 24 87 25 127 5z
m3960 0 c43 -22 60 -53 60 -108 0 -42 -5 -54 -34 -83 -29 -29 -41 -34 -83 -34
-55 0 -86 17 -108 60 -57 109 56 222 165 165z m-4025 -380 c44 0 92 4 108 9
26 8 27 7 27 -25 0 -75 -74 -137 -148 -125 -66 10 -105 51 -118 120 l-7 39 29
-9 c16 -5 65 -9 109 -9z m3952 -2 c42 -3 86 0 108 7 20 7 39 10 41 7 14 -13
-12 -85 -41 -114 -81 -81 -225 -28 -225 85 0 31 2 34 23 27 12 -4 54 -9 94
-12z m-3514 -52 c140 -150 235 -373 266 -626 6 -49 11 -224 11 -387 l0 -298
-245 0 -245 0 2 587 c2 417 6 587 14 590 6 2 22 -35 37 -89 58 -209 87 -429
103 -786 6 -129 10 -157 26 -177 27 -35 86 -35 118 0 l24 25 -12 223 c-23 422
-65 673 -155 909 -14 36 -23 69 -20 72 14 14 33 3 76 -43z m3170 43 c3 -3 -3
-29 -15 -58 -92 -227 -145 -549 -164 -989 -7 -156 -7 -158 16 -182 30 -32 88
-34 116 -4 16 17 20 51 31 242 19 338 50 555 104 743 13 41 27 73 33 71 8 -3
12 -179 14 -590 l2 -587 -245 0 -245 0 0 298 c0 163 5 338 11 387 31 253 126
476 266 626 43 46 62 57 76 43z m-3543 -819 l0 -535 -55 0 -55 0 0 529 0 530
53 4 c28 2 53 4 55 5 1 1 2 -239 2 -533z m3950 -6 l0 -529 -55 0 -55 0 0 533
0 532 55 -3 55 -4 0 -529z"/>
</g>
</svg>
